<svg width="68" height="68" viewBox="0 0 68 68" fill="none" xmlns="http://www.w3.org/2000/svg">
<rect x="2" y="2" width="64" height="64" rx="32" fill="#2969FE"/>
<rect x="2" y="2" width="64" height="64" rx="32" stroke="#0752FF" stroke-width="3"/>
<path d="M28.3544 22.9792C28.1612 23.1719 28.008 23.4009 27.9035 23.6529C27.7989 23.9049 27.7451 24.1751 27.7451 24.4479C27.7451 24.7208 27.7989 24.991 27.9035 25.243C28.008 25.495 28.1612 25.724 28.3544 25.9167L36.4377 34L28.3544 42.0834C28.1615 42.2762 28.0085 42.5052 27.9041 42.7572C27.7997 43.0092 27.746 43.2793 27.746 43.5521C27.746 43.8249 27.7997 44.095 27.9041 44.347C28.0085 44.599 28.1615 44.828 28.3544 45.0209C28.5473 45.2137 28.7762 45.3667 29.0282 45.4711C29.2803 45.5755 29.5504 45.6292 29.8231 45.6292C30.0959 45.6292 30.366 45.5755 30.618 45.4711C30.87 45.3667 31.099 45.2137 31.2919 45.0209L40.8544 35.4584C41.0475 35.2656 41.2007 35.0367 41.3053 34.7847C41.4098 34.5326 41.4636 34.2625 41.4636 33.9896C41.4636 33.7168 41.4098 33.4466 41.3053 33.1946C41.2007 32.9425 41.0475 32.7136 40.8544 32.5209L31.2919 22.9584C30.5002 22.1667 29.1669 22.1667 28.3544 22.9792Z" fill="white"/>
</svg>
