<svg width="58" height="58" viewBox="0 0 58 58" fill="none" xmlns="http://www.w3.org/2000/svg">
<path d="M38.6663 7.25C40.5156 7.2499 42.295 7.95645 43.6405 9.2251C44.9859 10.4938 45.7958 12.2286 45.9043 14.0747L45.9163 14.5V38.6667H47.7288C49.2924 38.6667 50.5805 39.8557 50.7352 41.3782L50.7497 41.6875V45.9167C50.7498 47.7659 50.0432 49.5453 48.7746 50.8908C47.5059 52.2363 45.7711 53.0461 43.925 53.1546L43.4997 53.1667H19.333C17.4837 53.1668 15.7043 52.4602 14.3589 51.1916C13.0134 49.9229 12.2036 48.1881 12.0951 46.342L12.083 45.9167V21.75H7.85384C7.10598 21.7503 6.38459 21.4733 5.82924 20.9724C5.2739 20.4715 4.92409 19.7824 4.84751 19.0385L4.83301 18.7292V14.5C4.8329 12.6507 5.53946 10.8713 6.80811 9.52587C8.07676 8.1804 9.8116 7.37057 11.6577 7.26208L12.083 7.25H38.6663ZM38.6663 12.0833H16.9163V45.9167C16.9163 46.5576 17.171 47.1723 17.6242 47.6255C18.0774 48.0787 18.6921 48.3333 19.333 48.3333C19.9739 48.3333 20.5886 48.0787 21.0418 47.6255C21.4951 47.1723 21.7497 46.5576 21.7497 45.9167V41.6875C21.7497 40.02 23.103 38.6667 24.7705 38.6667H41.083V14.5C41.083 13.8591 40.8284 13.2444 40.3752 12.7912C39.922 12.3379 39.3073 12.0833 38.6663 12.0833ZM45.9163 43.5H26.583V45.9167C26.583 46.7625 26.438 47.5769 26.1722 48.3333H43.4997C44.1406 48.3333 44.7553 48.0787 45.2085 47.6255C45.6617 47.1723 45.9163 46.5576 45.9163 45.9167V43.5ZM28.9997 29C29.6406 29 30.2553 29.2546 30.7085 29.7078C31.1617 30.161 31.4163 30.7757 31.4163 31.4167C31.4163 32.0576 31.1617 32.6723 30.7085 33.1255C30.2553 33.5787 29.6406 33.8333 28.9997 33.8333H24.1663C23.5254 33.8333 22.9107 33.5787 22.4575 33.1255C22.0043 32.6723 21.7497 32.0576 21.7497 31.4167C21.7497 30.7757 22.0043 30.161 22.4575 29.7078C22.9107 29.2546 23.5254 29 24.1663 29H28.9997ZM33.833 19.3333C34.4739 19.3333 35.0886 19.5879 35.5418 20.0412C35.9951 20.4944 36.2497 21.1091 36.2497 21.75C36.2497 22.3909 35.9951 23.0056 35.5418 23.4588C35.0886 23.9121 34.4739 24.1667 33.833 24.1667H24.1663C23.5254 24.1667 22.9107 23.9121 22.4575 23.4588C22.0043 23.0056 21.7497 22.3909 21.7497 21.75C21.7497 21.1091 22.0043 20.4944 22.4575 20.0412C22.9107 19.5879 23.5254 19.3333 24.1663 19.3333H33.833ZM12.083 12.0833C11.4911 12.0834 10.9198 12.3007 10.4774 12.6941C10.0351 13.0874 9.75251 13.6294 9.68326 14.2172L9.66634 14.5V16.9167H12.083V12.0833Z" fill="white"/>
</svg>
