<svg width="25" height="24" viewBox="0 0 25 24" fill="none" xmlns="http://www.w3.org/2000/svg">
<g clip-path="url(#clip0_312_89)">
<path d="M11.0052 20.2519L22.2968 8.96028L22.2987 8.96215L23.0059 8.25496C23.4047 7.85608 23.6288 7.31508 23.6288 6.75098C23.6288 6.18687 23.4047 5.64587 23.0059 5.24699L22.3033 5.94958L23.0059 5.24699C22.607 4.84811 22.066 4.62402 21.5019 4.62402C20.9378 4.62402 20.3968 4.84809 19.9979 5.24693C19.9979 5.24695 19.9979 5.24697 19.9979 5.24699L9.50099 15.7421L5.75398 11.9951C5.55648 11.7976 5.322 11.6409 5.06395 11.5341C4.8059 11.4272 4.52932 11.3721 4.25 11.3721C3.97068 11.3721 3.6941 11.4272 3.43605 11.5341C3.17799 11.6409 2.94352 11.7976 2.74602 11.9951C2.54851 12.1926 2.39184 12.4271 2.28495 12.6852C2.17806 12.9432 2.12305 13.2198 2.12305 13.4991C2.12305 13.7784 2.17806 14.055 2.28495 14.313C2.39184 14.5711 2.54851 14.8056 2.74602 15.0031L7.99479 20.2519C7.99494 20.252 7.99509 20.2522 7.99524 20.2523C8.19257 20.4502 8.427 20.6072 8.68509 20.7144C8.94338 20.8216 9.22031 20.8769 9.5 20.8769C9.77969 20.8769 10.0566 20.8216 10.3149 20.7144C10.573 20.6072 10.8074 20.4502 11.0048 20.2523C11.0049 20.2522 11.0051 20.252 11.0052 20.2519Z" fill="#5CFD42" stroke="#192941" stroke-width="2"/>
</g>
<defs>
<clipPath id="clip0_312_89">
<rect width="24" height="24" fill="white" transform="translate(0.5)"/>
</clipPath>
</defs>
</svg>
