<svg width="30" height="34" viewBox="0 0 30 34" fill="none" xmlns="http://www.w3.org/2000/svg">
<path d="M6.66667 6.66667V1.66667C6.66667 1.22464 6.84226 0.800716 7.15482 0.488155C7.46738 0.175595 7.89131 0 8.33333 0H28.3333C28.7754 0 29.1993 0.175595 29.5118 0.488155C29.8244 0.800716 30 1.22464 30 1.66667V25C30 25.442 29.8244 25.866 29.5118 26.1785C29.1993 26.4911 28.7754 26.6667 28.3333 26.6667H23.3333V31.6667C23.3333 32.5867 22.5833 33.3333 21.655 33.3333H1.67833C1.45848 33.3349 1.2405 33.2929 1.03694 33.2098C0.833386 33.1268 0.648275 33.0042 0.492273 32.8493C0.336271 32.6944 0.212461 32.5102 0.127974 32.3072C0.0434879 32.1042 -5.38601e-06 31.8865 5.00266e-10 31.6667L0.00500004 8.33333C0.00500004 7.41333 0.755 6.66667 1.68167 6.66667H6.66667ZM3.33667 10L3.33333 30H20V10H3.33667ZM10 6.66667H23.3333V23.3333H26.6667V3.33333H10V6.66667Z" fill="url(#paint0_linear_965_3)"/>
<defs>
<linearGradient id="paint0_linear_965_3" x1="15" y1="0" x2="15" y2="33.3334" gradientUnits="userSpaceOnUse">
<stop stop-color="#CA7F19"/>
<stop offset="1" stop-color="#FFD200"/>
</linearGradient>
</defs>
</svg>
