<svg width="40" height="40" viewBox="0 0 40 40" fill="none" xmlns="http://www.w3.org/2000/svg">
<g clip-path="url(#clip0_312_46)">
<path d="M37.8569 0.603394L22.1426 12.032L25.0485 5.28926L37.8569 0.603394Z" fill="#E2761B" stroke="#E2761B" stroke-linecap="round" stroke-linejoin="round"/>
<path d="M1.67397 0.603394L17.4093 12.3145L14.6194 5.36007L1.67397 0.603394ZM32.5867 27.4951L28.3619 33.8687L37.4014 36.3177L40 27.6364L32.5867 27.4951ZM0 27.6364L2.5827 36.3177L11.6222 33.8687L7.39737 27.4951L0 27.6364Z" fill="#E4761B" stroke="#E4761B" stroke-linecap="round" stroke-linejoin="round"/>
<path d="M11.0977 16.6689L8.57227 20.344L17.5713 20.7284L17.2516 11.4253L11.0977 16.6689ZM28.8879 16.6689L22.6542 11.3177L22.4464 20.7284L31.4294 20.344L28.8879 16.6689ZM11.6092 33.4605L17.0118 30.9233L12.3445 27.4174L11.6092 33.4605ZM22.9739 30.9233L28.3924 33.4605L27.6412 27.4174L22.9739 30.9233Z" fill="#E4761B" stroke="#E4761B" stroke-linecap="round" stroke-linejoin="round"/>
<path d="M28.5706 33.9451L23.0359 31.3177L23.4767 34.8368L23.4277 36.3177L28.5706 33.9451ZM11.4277 33.9451L16.5706 36.3177L16.5379 34.8368L16.9461 31.3177L11.4277 33.9451Z" fill="#D7C1B3" stroke="#D7C1B3" stroke-linecap="round" stroke-linejoin="round"/>
<path d="M16.6923 25.6034L12.1426 24.2405L15.3532 22.7462L16.6923 25.6034ZM23.291 25.6034L24.6301 22.7462L27.8569 24.2405L23.291 25.6034Z" fill="#233447" stroke="#233447" stroke-linecap="round" stroke-linejoin="round"/>
<path d="M11.9307 33.4605L12.6685 27.341L7.85742 27.4766L11.9307 33.4605ZM27.3321 27.341L28.0699 33.4605L32.1431 27.4766L27.3321 27.341ZM30.9903 20.6034L22.352 20.9802L23.1513 25.3363L24.427 22.7136L27.5012 24.0852L30.9903 20.6034ZM12.5147 24.0852L15.5889 22.7136L16.8493 25.3363L17.6639 20.9802L9.01022 20.6034L12.5147 24.0852Z" fill="#CD6116" stroke="#CD6116" stroke-linecap="round" stroke-linejoin="round"/>
<path d="M8.57227 20.6034L12.3445 27.6263L12.2166 24.1301L8.57227 20.6034ZM27.801 24.1301L27.6412 27.6263L31.4294 20.6034L27.801 24.1301ZM17.5713 20.9851L16.7241 25.3973L17.7791 30.6034L18.0188 23.7484L17.5713 20.9851ZM22.4464 20.9851L22.0148 23.7332L22.2066 30.6034L23.2776 25.3973L22.4464 20.9851Z" fill="#E4751F" stroke="#E4751F" stroke-linecap="round" stroke-linejoin="round"/>
<path d="M23.2957 26.0567L22.2158 30.8535L22.9895 31.3177L27.6957 28.1104L27.8569 24.8891L23.2957 26.0567ZM12.1426 24.8891L12.2715 28.1104L16.9777 31.3177L17.7514 30.8535L16.6876 26.0567L12.1426 24.8891Z" fill="#F6851B" stroke="#F6851B" stroke-linecap="round" stroke-linejoin="round"/>
<path d="M23.4277 36.0669L23.4767 34.4401L23.0686 34.0553H16.9134L16.5379 34.4401L16.5706 36.0669L11.4277 33.4605L13.2237 35.0349L16.8645 37.7462H23.1175L26.7747 35.0349L28.5706 33.4605L23.4277 36.0669Z" fill="#C0AD9E" stroke="#C0AD9E" stroke-linecap="round" stroke-linejoin="round"/>
<path d="M22.4938 31.1602L21.8485 30.6034H18.1241L17.4787 31.1602L17.1426 34.8891L17.4518 34.5179H22.5207L22.8569 34.8891L22.4938 31.1602Z" fill="#161616" stroke="#161616" stroke-linecap="round" stroke-linejoin="round"/>
<path d="M38.6667 12.9896L40 6.56828L38.0078 0.603394L22.9176 11.8407L28.7216 16.7668L36.9255 19.1748L38.7451 17.0501L37.9608 16.4835L39.2157 15.3346L38.2431 14.5792L39.498 13.6191L38.6667 12.9896ZM0 6.56828L1.33333 12.9896L0.486275 13.6191L1.74118 14.5792L0.784314 15.3346L2.03922 16.4835L1.2549 17.0501L3.05882 19.1748L11.2627 16.7668L17.0667 11.8407L1.97647 0.603394L0 6.56828Z" fill="#763D16" stroke="#763D16" stroke-linecap="round" stroke-linejoin="round"/>
<path d="M37.1941 19.1541L28.8561 16.79L31.391 20.4829L27.6126 27.5904L32.5867 27.5286H40L37.1941 19.1541ZM11.112 16.79L2.77401 19.1541L0 27.5286H7.39737L12.3555 27.5904L8.59307 20.4829L11.112 16.79ZM22.4312 20.8692L22.9574 11.9538L25.3806 5.60339H14.6194L17.0108 11.9538L17.5688 20.8692L17.7601 23.6813L17.776 30.6034H22.1921L22.224 23.6813L22.4312 20.8692Z" fill="#F6851B" stroke="#F6851B" stroke-linecap="round" stroke-linejoin="round"/>
</g>
<defs>
<clipPath id="clip0_312_46">
<rect width="40" height="40" fill="white"/>
</clipPath>
</defs>
</svg>
