<svg width="87" height="87" viewBox="0 0 87 87" fill="none" xmlns="http://www.w3.org/2000/svg">
<path d="M63.1428 45.2608C63.1428 45.7073 62.9568 46.1537 62.5848 46.6001L44.7834 64.4015C44.3742 64.7363 43.9464 64.9037 43.5 64.9037C43.0535 64.9037 42.6257 64.7363 42.2165 64.4015L24.3593 46.5443C23.8013 45.9491 23.6711 45.298 23.9687 44.5912C24.2663 43.8472 24.8244 43.4751 25.6428 43.4751H36.3571V23.8323C36.3571 23.3114 36.5245 22.8836 36.8593 22.5488C37.1942 22.214 37.622 22.0466 38.1428 22.0466H48.8571C49.3779 22.0466 49.8058 22.214 50.1406 22.5488C50.4754 22.8836 50.6428 23.3114 50.6428 23.8323V43.4751H61.3571C61.8779 43.4751 62.3058 43.6425 62.6406 43.9774C62.9754 44.3122 63.1428 44.74 63.1428 45.2608ZM58.7343 17.1917C58.7343 17.1917 57.5718 16.5127 55.2466 15.1548C52.9215 13.7969 49.0059 13.118 43.5 13.118C37.994 13.118 32.9159 14.4759 28.2656 17.1917C23.6153 19.9074 19.9323 23.5905 17.2165 28.2408C14.5007 32.8911 13.1428 37.9692 13.1428 43.4751C13.1428 48.9811 14.5007 54.0592 17.2165 58.7095C19.9323 63.3598 23.6153 67.0428 28.2656 69.7586C32.9159 72.4744 37.994 73.8323 43.5 73.8323C49.0059 73.8323 54.084 72.4744 58.7343 69.7586C63.3846 67.0428 67.0677 63.3598 69.7834 58.7095C72.4992 54.0592 73.8571 48.9811 73.8571 43.4751C73.8571 37.9692 72.4992 32.8911 69.7834 28.2408C67.0677 23.5905 63.3846 19.9074 58.7343 17.1917ZM80.6093 21.9629C80.6093 21.9629 81.5673 23.6044 83.4832 26.8875C85.3991 30.1706 86.3571 35.6998 86.3571 43.4751C86.3571 51.2504 84.4412 58.4212 80.6093 64.9874C76.7775 71.5536 71.5785 76.7527 65.0122 80.5845C58.446 84.4164 51.2753 86.3323 43.5 86.3323C35.7247 86.3323 28.5539 84.4164 21.9877 80.5845C15.4215 76.7527 10.2224 71.5536 6.39059 64.9874C2.55875 58.4212 0.642822 51.2504 0.642822 43.4751C0.642822 35.6998 2.55875 28.5291 6.39059 21.9629C10.2224 15.3966 15.4215 10.1976 21.9877 6.36576C28.5539 2.53391 35.7247 0.617989 43.5 0.617989C51.2753 0.617989 58.446 2.53391 65.0122 6.36576C71.5785 10.1976 76.7775 15.3966 80.6093 21.9629Z" fill="white"/>
</svg>
