
<svg width="140" height="140" viewBox="0 0 140 140" fill="none" xmlns="http://www.w3.org/2000/svg">
<path d="M109.97 51.31C113.33 48.51 117.25 45.15 119 41.44C116.13 42.91 112.7 43.82 108.92 44.31C112.42 41.79 115.29 38.5 116.76 34.02C113.12 35.98 109.41 37.66 104.79 38.5C93.94 25.41 67.97 36.05 72.59 55.65C54.32 54.53 43.19 46.27 33.95 36.12C28.7 44.66 33.25 57.61 39.48 61.18C36.26 60.97 33.81 59.99 31.5 58.87C31.78 69.65 37.73 74.83 46.06 77.63C43.54 78.12 40.74 78.26 38.08 77.84C40.67 85.33 46.06 90.02 55.3 91C49 96.32 37.38 100.03 28 98.56C36.05 103.67 45.22 107.73 57.96 107.17C88.83 105.77 109.48 83.65 109.97 51.31ZM70 0C79.1925 0 88.2951 1.8106 96.7878 5.32843C105.281 8.84626 112.997 14.0024 119.497 20.5025C125.998 27.0026 131.154 34.7194 134.672 43.2122C138.189 51.7049 140 60.8075 140 70C140 88.5652 132.625 106.37 119.497 119.497C106.37 132.625 88.5652 140 70 140C60.8075 140 51.7049 138.189 43.2122 134.672C34.7194 131.154 27.0026 125.998 20.5025 119.497C7.37498 106.37 0 88.5652 0 70C0 51.4348 7.37498 33.6301 20.5025 20.5025C33.6301 7.37498 51.4348 0 70 0Z" fill="white"/>
</svg>
